<?xml version="1.0" encoding="UTF-8" standalone="no"?>
<svg width="17px" height="17px" viewBox="0 0 17 17" version="1.1" xmlns="http://www.w3.org/2000/svg" xmlns:xlink="http://www.w3.org/1999/xlink">
    <!-- Generator: Sketch 48.2 (47327) - http://www.bohemiancoding.com/sketch -->
    <title>laptop</title>
    <desc>Created with Sketch.</desc>
    <defs></defs>
    <g id="Artboard" stroke="none" stroke-width="1" fill="none" fill-rule="evenodd" transform="translate(-28.000000, -76.000000)">
        <g id="Group-9" transform="translate(28.000000, 76.000000)" fill="#00303F" fill-rule="nonzero">
            <g id="laptop">
                <path d="M16.9314497,10.2902739 C16.7149695,9.70000385 16.0618675,9.39552033 15.470165,9.60900644 L12.827416,10.5701921 C12.7978786,10.4376137 12.7433804,10.3118583 12.6668259,10.1996283 C12.4932611,9.95102076 12.2278815,9.78160325 11.9291951,9.72872708 L11.7266747,9.69167069 L14.883141,9.69167069 C15.3557422,9.69167069 15.7388611,9.30880816 15.7388611,8.83652328 L15.7388611,7.69632673 C15.7388611,7.53889844 15.6111548,7.41127759 15.4536211,7.41127759 L14.883141,7.41127759 L14.883141,0.855147414 C14.883141,0.382862538 14.500022,0 14.0274209,0 L3.75877935,0 C3.28617818,0 2.90305923,0.382862538 2.90305923,0.855147414 L2.90305923,7.41127759 L2.33257915,7.41127759 C2.17504542,7.41127759 2.0473391,7.53889844 2.0473391,7.69632673 L2.0473391,8.83652328 C2.0473391,9.30880816 2.43045805,9.69167069 2.90305923,9.69167069 L5.48847497,9.69167069 C5.15825213,9.84110078 4.84249102,10.0205834 4.54518615,10.2278481 L3.6501029,10.8549562 L3.32293257,10.3877607 C3.27955884,10.3257917 3.21332143,10.2835864 3.13880033,10.270435 C3.06427923,10.2572836 2.98758278,10.274264 2.92559319,10.3176386 L0.12168358,12.2796318 C-0.00684807422,12.3695494 -0.0385813155,12.5463215 0.0506588099,12.67528 L2.99661796,16.8783296 C3.0399917,16.9402986 3.10622911,16.9825039 3.18075021,16.9956553 C3.25527131,17.0088067 3.33196775,16.9918263 3.39395734,16.9484517 L6.19786695,14.9864584 C6.259832,14.9430699 6.3020081,14.8768563 6.31511433,14.8023879 C6.32822056,14.7279194 6.31118299,14.6512983 6.26775076,14.589385 L6.10573442,14.3579251 C6.6562687,13.9824754 7.33218787,13.8377617 7.9883187,13.9548656 L8.49747217,14.0426607 C9.13872887,14.1562142 9.79861022,14.0987946 10.4105771,13.876192 L16.2491556,11.752576 C16.5336874,11.6491188 16.7654014,11.4368834 16.8932671,11.1626105 C17.0211329,10.8883375 17.0346635,10.5745214 16.9308793,10.2902739 L16.9314497,10.2902739 Z M3.47353931,0.855147414 C3.47353931,0.697719122 3.60124563,0.570098276 3.75877935,0.570098276 L14.0274209,0.570098276 C14.1849546,0.570098276 14.3126609,0.697719122 14.3126609,0.855147414 L14.3126609,7.41127759 L3.47353931,7.41127759 L3.47353931,0.855147414 Z M8.03737998,7.98137587 L9.74882024,7.98137587 L9.74882024,8.266425 L8.03737998,8.266425 L8.03737998,7.98137587 Z M2.61781919,8.83652328 L2.61781919,7.98137587 L7.4668999,7.98137587 L7.4668999,8.266425 C7.4668999,8.58128159 7.72231253,8.83652328 8.03737998,8.83652328 L9.74882024,8.83652328 C10.0638877,8.83652328 10.3193003,8.58128159 10.3193003,8.266425 L10.3193003,7.98137587 L15.168381,7.98137587 L15.168381,8.83652328 C15.168381,8.99395157 15.0406747,9.12157242 14.883141,9.12157242 L2.90305923,9.12157242 C2.7455255,9.12157242 2.61781919,8.99395157 2.61781919,8.83652328 Z M3.30039861,16.317923 L0.682465503,12.5817839 L3.01915193,10.9458869 L5.63679979,14.6828811 L3.30039861,16.317923 Z M16.4214405,10.7799883 C16.3876573,10.9814419 16.2470744,11.1486749 16.0543366,11.2166836 L10.2160434,13.3402997 C9.69793425,13.5286167 9.13931869,13.5771851 8.59645047,13.4811139 L8.08701175,13.3930338 C7.28193853,13.2491539 6.45255686,13.428069 5.77856409,13.8910146 L3.97755847,11.3204415 L4.87264172,10.6933334 C5.33580046,10.3684261 5.84720766,10.1183285 6.38812206,9.95220561 L6.44032099,9.93795315 C7.25756582,9.68903168 8.12201322,9.63610189 8.9635544,9.78345652 L11.8285054,10.2877084 C11.978467,10.3139351 12.1118562,10.3986319 12.1993174,10.523159 C12.2500501,10.5955714 12.282091,10.6793898 12.2925909,10.7671611 C12.3085477,10.8472078 12.304432,10.9299567 12.2806108,11.0080276 C12.1994324,11.2905853 11.9165675,11.4651282 11.6274112,11.4110871 L8.5439663,10.8666432 L8.44470276,11.42819 L11.5272919,11.9720638 C12.098287,12.0736007 12.6549838,11.7321141 12.8228522,11.1773468 L15.6641282,10.1440437 C15.9606655,10.0370401 16.287926,10.190042 16.3957689,10.4861026 C16.4313556,10.5797757 16.4409162,10.681326 16.4234372,10.7799883 L16.4214405,10.7799883 Z" id="Shape"></path>
                <path d="M8,2 C7.44771525,2 7,2.44771525 7,3 C7,3.55228475 7.44771525,4 8,4 C8.55228475,4 9,3.55228475 9,3 C9,2.44771525 8.55228475,2 8,2 Z M8,3.5 C7.72385763,3.5 7.5,3.27614237 7.5,3 C7.5,2.72385763 7.72385763,2.5 8,2.5 C8.27614237,2.5 8.5,2.72385763 8.5,3 C8.5,3.27614237 8.27614237,3.5 8,3.5 Z" id="Shape"></path>
                <path d="M11.3786996,5.54259994 L11.1227997,5.11629998 C11.1911273,4.98685407 11.2473657,4.85137986 11.2907997,4.71160003 L11.7725996,4.59160004 C11.9064153,4.55822482 12.0002372,4.43791487 11.9999995,4.30000008 L11.9999995,3.70000015 C11.9999615,3.56230902 11.906198,3.44232143 11.7725996,3.40900018 L11.2907997,3.28900019 C11.2473657,3.14922036 11.1911273,3.01374616 11.1227997,2.88430024 L11.3786996,2.45800029 C11.449541,2.33988927 11.4308606,2.18871458 11.3333996,2.09140033 L10.9091997,1.66660038 C10.8118855,1.5691394 10.6607108,1.55045906 10.5425998,1.62130038 L10.1162998,1.87720035 C9.98685392,1.80887271 9.85137972,1.75263435 9.71159989,1.70920037 L9.59159991,1.22740042 C9.55822469,1.09358473 9.43791474,0.999762771 9.29999995,1.00000045 L8.70000005,1.00000045 C8.56230893,1.00003849 8.44232134,1.09380199 8.40900009,1.22740042 L8.28900011,1.70920037 C8.14922028,1.75263435 8.01374608,1.80887271 7.88430017,1.87720035 L7.45800023,1.62130038 C7.33988922,1.55045906 7.18871454,1.5691394 7.09140029,1.66660038 L6.66660035,2.09080033 C6.56913938,2.18811458 6.55045904,2.33928927 6.62130036,2.45740029 L6.87720032,2.88370024 C6.80887268,3.01314616 6.75263432,3.14862036 6.70920034,3.28840019 L6.22740042,3.40840018 C6.09358473,3.4417754 5.99976277,3.56208536 6.00000045,3.70000015 L6.00000045,4.30000008 C6.00003849,4.4376912 6.09380199,4.5576788 6.22740042,4.59100004 L6.70920034,4.71100003 C6.75263432,4.85077986 6.80887268,4.98625407 6.87720032,5.11569998 L6.62130036,5.54199994 C6.55045904,5.66011095 6.56913938,5.81128564 6.66660035,5.9085999 L7.09080029,6.33279985 C7.18811454,6.43026082 7.33928922,6.44894117 7.45740023,6.37809984 L7.88370017,6.12219987 C8.01314608,6.19052751 8.14862028,6.24676587 8.28840011,6.29019985 L8.40840009,6.7719998 C8.44154157,6.90605381 8.5619102,7.0001692 8.70000005,6.99999977 L9.29999995,6.99999977 C9.43769107,6.99996173 9.55767866,6.90619823 9.59099991,6.7725998 L9.71099989,6.29079985 C9.85077972,6.24736587 9.98625392,6.19112751 10.1156998,6.12279987 L10.5419998,6.37869984 C10.6601108,6.44954117 10.8112855,6.43086082 10.9085997,6.33339985 L11.3327996,5.9091999 C11.4304574,5.81203342 11.449387,5.66084399 11.3786996,5.54259994 Z M10.7543997,4.39720007 C10.7094396,4.59679328 10.630489,4.78716779 10.5209998,4.96 C10.4604557,5.05579972 10.4590631,5.17754032 10.5173998,5.27469997 L10.7435997,5.65149992 L10.6505998,5.74449991 L10.2737998,5.51829994 C10.1766402,5.45996323 10.0548996,5.46135588 9.95909986,5.52189994 C9.78654307,5.63129456 9.59648068,5.710242 9.39719994,5.75529991 C9.28669749,5.78024013 9.19966674,5.86529818 9.17219997,5.97519989 L9.06569999,6.39999984 L8.93430001,6.39999984 L8.82780003,5.97429989 C8.80033326,5.86439818 8.71330251,5.77934013 8.60280006,5.75439991 C8.40320685,5.70943979 8.21283235,5.63048917 8.04000014,5.52099994 C7.94420043,5.46045588 7.82245984,5.45906323 7.72530019,5.51739994 L7.34850025,5.74359991 L7.25550026,5.65059992 L7.48170023,5.27379997 C7.53994147,5.17703113 7.53889796,5.05575235 7.47900023,4.96 C7.36960561,4.78744321 7.29065818,4.59738081 7.24560026,4.39810007 C7.22066005,4.28759761 7.135602,4.20056686 7.0257003,4.17310009 L6.60000036,4.0657001 L6.60000036,3.93430012 L7.0257003,3.82780013 C7.135602,3.80033337 7.22066005,3.71330262 7.24560026,3.60280016 C7.29056039,3.40320694 7.36951101,3.21283244 7.47900023,3.04000022 C7.53954428,2.9442005 7.54093693,2.82245991 7.48260023,2.72530026 L7.25640026,2.3500003 L7.34940025,2.25700031 L7.72620019,2.48320028 C7.8232504,2.54098504 7.94453124,2.53936178 8.04000014,2.47900028 C8.21255693,2.36960566 8.40261932,2.29065823 8.60190006,2.24560031 C8.71240251,2.22066009 8.79943326,2.13560204 8.82690003,2.02570033 L8.93430001,1.60000038 L9.06569999,1.60000038 L9.17219997,2.02570033 C9.19966674,2.13560204 9.28669749,2.22066009 9.39719994,2.24560031 C9.59648068,2.29065823 9.78654307,2.36960566 9.95909986,2.47900028 C10.0548996,2.53954434 10.1766402,2.54093699 10.2737998,2.48260028 L10.6505998,2.25640031 L10.7435997,2.3494003 L10.5173998,2.72620026 C10.4594326,2.82313797 10.460824,2.94441788 10.5209998,3.04000022 C10.6303944,3.21255701 10.7093418,3.40261941 10.7543997,3.60190016 C10.77934,3.71240262 10.864398,3.79943337 10.9742997,3.82690013 L11.3999996,3.93430012 L11.3999996,4.0657001 L10.9742997,4.17220009 C10.864398,4.19966686 10.77934,4.28669761 10.7543997,4.39720007 Z" id="Shape"></path>
                <polygon id="Shape" points="5 4 5.5 4 5.5 4.5 5 4.5"></polygon>
                <polygon id="Shape" transform="translate(5.500035, 5.499940) rotate(-15.008914) translate(-5.500035, -5.499940) " points="5.00003474 4.99993983 5.50003474 4.99993983 5.50003474 5.49993983 5.00003474 5.49993983"></polygon>
                <polygon id="Shape" transform="translate(5.500001, 5.499995) rotate(-30.000728) translate(-5.500001, -5.499995) " points="5.00000147 4.99999452 5.50000147 4.99999452 5.50000147 5.49999452 5.00000147 5.49999452"></polygon>
                <polygon id="Shape" transform="translate(6.500000, 6.500000) rotate(-45.000000) translate(-6.500000, -6.500000) " points="6 6 6.5 6 6.5 6.5 6 6.5"></polygon>
                <polygon id="Shape" transform="translate(11.500000, 6.500000) rotate(-45.000000) translate(-11.500000, -6.500000) " points="11 6 11.5 6 11.5 6.5 11 6.5"></polygon>
                <polygon id="Shape" transform="translate(12.498182, 4.492426) rotate(-59.999272) translate(-12.498182, -4.492426) " points="11.9980873 3.99232874 12.4980873 3.99232874 12.4980873 4.49232874 11.9980873 4.49232874"></polygon>
                <polygon id="Shape" transform="translate(12.496313, 4.493211) rotate(-74.991086) translate(-12.496313, -4.493211) " points="11.9962206 3.99311536 12.4962206 3.99311536 12.4962206 4.49311536 11.9962206 4.49311536"></polygon>
                <polygon id="Shape" points="12 4 12.5 4 12.5 4.5 12 4.5"></polygon>
                <polygon id="Shape" transform="translate(12.500035, 2.499940) rotate(-15.008914) translate(-12.500035, -2.499940) " points="12.0000347 1.99993983 12.5000347 1.99993983 12.5000347 2.49993983 12.0000347 2.49993983"></polygon>
                <polygon id="Shape" transform="translate(12.500001, 1.499995) rotate(-30.000728) translate(-12.500001, -1.499995) " points="12.0000015 0.999994521 12.5000015 0.999994521 12.5000015 1.49999452 12.0000015 1.49999452"></polygon>
                <polygon id="Shape" transform="translate(11.500000, 1.500000) rotate(-45.000000) translate(-11.500000, -1.500000) " points="11 1 11.5 1 11.5 1.5 11 1.5"></polygon>
                <polygon id="Shape" transform="translate(6.500000, 1.500000) rotate(-45.000000) translate(-6.500000, -1.500000) " points="6 1 6.5 1 6.5 1.5 6 1.5"></polygon>
                <polygon id="Shape" transform="translate(5.498182, 1.492426) rotate(-59.999272) translate(-5.498182, -1.492426) " points="4.99808734 0.992328742 5.49808734 0.992328742 5.49808734 1.49232874 4.99808734 1.49232874"></polygon>
                <polygon id="Shape" transform="translate(5.496313, 2.493211) rotate(-74.991086) translate(-5.496313, -2.493211) " points="4.9962206 1.99311536 5.4962206 1.99311536 5.4962206 2.49311536 4.9962206 2.49311536"></polygon>
            </g>
        </g>
    </g>
</svg>